# Blender 4.4.3
# www.blender.org
mtllib teeleewizor.mtl
o Cube
v -0.875549 -0.467602 -1.043276
v -0.875549 0.563170 -1.043276
v 0.880537 0.563170 -1.043276
v 0.880537 -0.467602 -1.043276
v 0.880537 -0.467602 -1.000000
v 0.880537 0.563170 -1.000000
v -0.875549 0.563170 -1.000000
v -0.875549 -0.467602 -1.000000
v 0.865455 -0.448808 -1.000000
v -0.860467 -0.448808 -1.000000
v -0.860467 0.544376 -1.000000
v 0.865455 0.544376 -1.000000
v 0.865455 -0.448808 -1.019994
v -0.860467 -0.448808 -1.019994
v -0.860467 0.544376 -1.019994
v 0.865455 0.544376 -1.019994
v -0.110497 -0.467602 -1.043276
v -0.110497 -0.467602 -1.000000
v 0.107580 -0.467602 -1.043276
v 0.107580 -0.467602 -1.000000
v -0.108555 -0.514473 -1.043276
v -0.108555 -0.514473 -1.000000
v 0.105638 -0.514473 -1.043276
v 0.105638 -0.514473 -1.000000
v -0.118454 -0.527027 -1.043276
v -0.118454 -0.527027 -1.000000
v 0.115536 -0.527027 -1.043276
v 0.115536 -0.527027 -1.000000
v -0.519817 -0.529538 -1.043276
v -0.519817 -0.529538 -1.000000
v 0.516900 -0.529538 -1.043276
v 0.516900 -0.529538 -1.000000
v -0.514148 -0.547952 -1.043276
v -0.514148 -0.547952 -1.000000
v 0.511231 -0.547952 -1.043276
v 0.511231 -0.547952 -1.000000
v -0.505941 -0.563017 -1.043276
v -0.505941 -0.563017 -1.000000
v 0.503024 -0.563017 -1.043276
v 0.503024 -0.563017 -1.000000
vn -1.0000 -0.0000 -0.0000
vn -0.0000 -0.0000 1.0000
vn -0.0000 1.0000 -0.0000
vn 1.0000 -0.0000 -0.0000
vn -0.0000 -0.0000 -1.0000
vn -0.0000 -1.0000 -0.0000
vn -0.9991 -0.0414 -0.0000
vn 0.9991 -0.0414 -0.0000
vn 0.7853 0.6191 -0.0000
vn -0.7853 0.6191 -0.0000
vn 0.0063 1.0000 -0.0000
vn -0.0063 1.0000 -0.0000
vn -0.9557 -0.2942 -0.0000
vn 0.9557 -0.2942 -0.0000
vn 0.8781 -0.4784 -0.0000
vn -0.8781 -0.4784 -0.0000
vt 0.011841 0.108102
vt 0.012536 0.971918
vt 0.987120 0.108102
vt 0.987814 0.971918
vt 0.981188 0.961512
vt 0.982911 0.123757
vt 0.795005 0.193403
vt 0.795107 0.319951
vt 0.937984 0.319951
vt 0.937882 0.193403
vt 0.875157 0.193403
vt 0.857822 0.193403
vt 0.440630 0.108102
vt 0.018481 0.123757
vt 0.558955 0.108102
vt 0.018842 0.961512
vt 0.441709 0.069060
vt 0.557182 0.069060
vt 0.566151 0.058603
vt 0.436213 0.058603
vt 0.785215 0.059636
vt 0.216454 0.061199
vt 0.218560 0.041173
vt 0.781026 0.041173
vt 0.776468 0.028624
vt 0.223117 0.028624
vt 0.323230 0.038559
vt 0.651355 0.038559
vt 0.648696 0.031238
vt 0.325889 0.031238
s 0
usemtl Material
f 8/1/1 7/2/1 2/2/1 1/1/1
f 5/3/2 6/4/2 12/5/2 9/6/2
f 7/2/3 6/4/3 3/4/3 2/2/3
f 6/4/4 5/3/4 4/3/4 3/4/4
f 1/7/5 2/8/5 3/9/5 4/10/5 19/11/5 17/12/5
f 18/13/6 8/1/6 1/1/6 17/13/6
f 10/14/3 9/6/3 13/6/3 14/14/3
f 8/1/2 18/13/2 20/15/2 5/3/2 9/6/2 10/14/2
f 7/2/2 8/1/2 10/14/2 11/16/2
f 6/4/2 7/2/2 11/16/2 12/5/2
f 14/14/2 13/6/2 16/5/2 15/16/2
f 11/16/4 10/14/4 14/14/4 15/16/4
f 12/5/6 11/16/6 15/16/6 16/5/6
f 9/6/1 12/5/1 16/5/1 13/6/1
f 5/3/6 20/15/6 19/15/6 4/3/6
f 18/13/7 17/13/7 21/17/7 22/17/7
f 17/13/5 19/15/5 23/18/5 21/17/5
f 19/15/8 20/15/8 24/18/8 23/18/8
f 20/15/2 18/13/2 22/17/2 24/18/2
f 21/17/5 23/18/5 27/19/5 25/20/5
f 23/18/9 24/18/9 28/19/9 27/19/9
f 24/18/2 22/17/2 26/20/2 28/19/2
f 22/17/10 21/17/10 25/20/10 26/20/10
f 27/19/11 28/19/11 32/21/11 31/21/11
f 28/19/2 26/20/2 30/22/2 32/21/2
f 26/20/12 25/20/12 29/22/12 30/22/12
f 25/20/5 27/19/5 31/21/5 29/22/5
f 30/22/13 29/22/13 33/23/13 34/23/13
f 29/22/5 31/21/5 35/24/5 33/23/5
f 31/21/14 32/21/14 36/24/14 35/24/14
f 32/21/2 30/22/2 34/23/2 36/24/2
f 35/24/15 36/24/15 40/25/15 39/25/15
f 36/24/2 34/23/2 38/26/2 40/25/2
f 34/23/16 33/23/16 37/26/16 38/26/16
f 33/27/5 35/28/5 39/29/5 37/30/5
f 37/26/6 39/25/6 40/25/6 38/26/6
